<?xml version="1.0" encoding="UTF-8" standalone="no"?>
<svg
   xmlns:dc="http://purl.org/dc/elements/1.1/"
   xmlns:cc="http://creativecommons.org/ns#"
   xmlns:rdf="http://www.w3.org/1999/02/22-rdf-syntax-ns#"
   xmlns:svg="http://www.w3.org/2000/svg"
   xmlns="http://www.w3.org/2000/svg"
   xmlns:sodipodi="http://sodipodi.sourceforge.net/DTD/sodipodi-0.dtd"
   xmlns:inkscape="http://www.inkscape.org/namespaces/inkscape"
   version="1.1"
   id="svg2"
   xml:space="preserve"
   width="793.70667"
   height="529.1333"
   viewBox="0 0 793.70667 529.1333"
   sodipodi:docname="envio-36.eps"><metadata
     id="metadata8"><rdf:RDF><cc:Work
         rdf:about=""><dc:format>image/svg+xml</dc:format><dc:type
           rdf:resource="http://purl.org/dc/dcmitype/StillImage" /></cc:Work></rdf:RDF></metadata><defs
     id="defs6" /><sodipodi:namedview
     pagecolor="#ffffff"
     bordercolor="#666666"
     borderopacity="1"
     objecttolerance="10"
     gridtolerance="10"
     guidetolerance="10"
     inkscape:pageopacity="0"
     inkscape:pageshadow="2"
     inkscape:window-width="640"
     inkscape:window-height="480"
     id="namedview4" /><g
     id="g10"
     inkscape:groupmode="layer"
     inkscape:label="ink_ext_XXXXXX"
     transform="matrix(1.3333333,0,0,-1.3333333,0,529.13333)"><g
       id="g12"
       transform="scale(0.1)"><path
         d="M 0,3968.51 V 0.0195313 H 5952.75 V 3968.51 H 0"
         style="fill:#20243d;fill-opacity:1;fill-rule:nonzero;stroke:none"
         id="path14" /><path
         d="m 2419.67,551.969 c 21.45,4.301 42.81,6.461 63.95,6.801 -5.83,16.57 -10.61,33.699 -14.14,51.382 -40.95,205.207 92.16,404.778 297.35,445.708 174.93,34.96 345.66,-56.719 417.62,-211.641 41.92,37.371 93.98,64.402 153.04,76.242 129.02,25.758 255.34,-28.422 327.98,-128.281 20.96,8.468 42.94,15.179 65.89,19.75 199.65,39.851 393.82,-89.649 433.64,-289.27 39.86,-199.648 -89.67,-393.801 -289.32,-433.66 -68.6,-13.6914 -136.6,-7.3789 -197.86,14.879 0.31,-1.359 0.66,-2.707 0.93,-4.129 6.73,-33.6797 8.33,-67.1484 5.52,-99.7304687 H 2198.26 C 2170.87,39.1211 2150.87,84.3516 2140.93,134.172 c -38.4,192.34 86.4,379.41 278.74,417.797"
         style="fill:#181c2e;fill-opacity:1;fill-rule:nonzero;stroke:none"
         id="path16" /><path
         d="m 0,866.5 c 113.508,7.371 220.398,-45.129 284.91,-133.82 20.949,8.472 42.961,15.172 65.891,19.75 C 550.449,792.281 744.617,662.781 784.473,463.16 824.316,263.512 694.785,69.3516 495.137,29.5117 426.523,15.8008 358.516,22.1094 297.266,44.3711 c 0.293,-1.3594 0.656,-2.7305 0.918,-4.1211 2.683,-13.4492 4.48,-26.8711 5.593,-40.2304687 l -303.777,0 V 866.5"
         style="fill:#181c2e;fill-opacity:1;fill-rule:nonzero;stroke:none"
         id="path18" /><path
         d="m 828.633,285.891 c 1.25,6.578 2.285,13.218 2.949,19.871 3.242,-1.27 6.523,-2.492 9.902,-3.621 -4.531,-5.262 -8.855,-10.59 -12.851,-16.25 z M 237.488,0.0195313 H 1203.9 C 1256.42,65.3906 1272.33,156.762 1237.5,239.48 c -1.29,3.079 -2.72,6.168 -4.13,9.18 22.07,2.172 44.17,7.699 65.69,16.75 115.56,48.649 169.78,181.742 121.16,297.332 -48.66,115.528 -181.76,169.77 -297.32,121.129 -26.28,-11.031 -49.34,-26.492 -68.8,-45.07 C 997.031,697.379 907.832,718.309 827.891,684.75 762.07,657.012 718.367,598.922 706.035,533.621 648.328,562.539 578.75,567.02 514.563,539.961 397.852,490.852 343.086,356.461 392.207,239.77 c 3.477,-8.239 7.402,-16.188 11.699,-23.801 -15.039,-2.547 -29.98,-6.707 -44.668,-12.949 C 276.711,168.301 229.656,84.7109 237.488,0.0195313"
         style="fill:#181c2e;fill-opacity:1;fill-rule:nonzero;stroke:none"
         id="path20" /><path
         d="m 3645.94,855.582 c 14.7,4.359 29.49,7.219 44.2,8.828 -5.12,11.16 -9.55,22.832 -13.13,34.961 -41.64,140.609 38.63,288.419 179.28,330.009 119.88,35.48 244.88,-17.67 304.96,-121.23 26.86,28.72 61.5,50.94 101.99,62.95 88.42,26.13 180.05,-3.64 237.09,-68.72 14.12,7.23 29,13.28 44.77,17.96 136.79,40.48 280.56,-37.59 321.05,-174.43 40.51,-136.82 -37.61,-280.578 -174.42,-321.051 -47.02,-13.929 -94.88,-13.847 -139.07,-2.179 0.28,-0.981 0.6,-1.879 0.9,-2.84 38.84,-131.238 -36.04,-269.11 -167.3,-307.961 -87.65,-25.938 -178.21,-1.078 -240.31,57.34 -19.33,-19.27 -43.66,-34.199 -71.71,-42.52 -83.03,-24.558 -169.86,17.25 -203.83,94.5 -24.06,-18.969 -52.03,-33.82 -83.17,-43.019 -131.87,-39 -270.36,36.242 -309.37,168.062 -39.01,131.828 36.21,270.34 168.07,309.34"
         style="fill:#181c2e;fill-opacity:1;fill-rule:nonzero;stroke:none"
         id="path22" /><path
         d="m 1214.51,149.52 c -41.7,129.472 29.47,268.25 158.97,309.941 14.45,4.648 29,7.809 43.53,9.758 -5.31,10.941 -9.99,22.34 -13.82,34.312 -44.46,138.09 31.46,286.16 169.58,330.641 117.79,37.887 242.66,-11.742 304.53,-112.793 25.92,29.062 59.65,51.851 99.44,64.641 86.83,27.992 178.18,0.66 236.13,-62.36 13.75,7.461 28.38,13.809 43.83,18.789 134.39,43.25 278.46,-30.59 321.71,-165.008 43.25,-134.402 -30.62,-278.429 -165.01,-321.691 -46.21,-14.879 -93.56,-15.898 -137.52,-5.398 0.3,-0.942 0.66,-1.84 0.96,-2.77 28.99,-90.082 3.11,-184.5898 -59.06,-247.5624687 H 1627.92 C 1619.27,10.5898 1611.71,22.2305 1605.72,35.0195 1588.82,21.0508 1569.79,9.26172 1549.01,0.0195313 H 1348.78 C 1287.06,27.5391 1236.83,80.1406 1214.51,149.52"
         style="fill:#181c2e;fill-opacity:1;fill-rule:nonzero;stroke:none"
         id="path24" /><path
         d="m 4696.34,726.52 c 13.13,8.269 26.84,14.48 40.8,18.812 -1.09,1.637 -2.18,3.227 -3.21,4.84 -64.77,102.738 -23.3,245.187 92.55,318.218 105.95,66.72 237.43,52.21 308.62,-29.31 14.53,17 31.99,32.32 52.24,45.05 96.61,60.86 218.65,40.78 272.6,-44.91 48.88,-77.509 25.15,-182.15 -51.42,-246.45 24.02,-77.95 -12.17,-170.02 -92.8,-220.86 -65.64,-41.32 -143.26,-44.34 -202.2,-14.289 -4.07,-42.23 -29.14,-84.09 -70.94,-110.422 -67.31,-42.418 -152.36,-28.379 -189.93,31.27 -3.33,5.281 -6.05,10.761 -8.39,16.351 l -1.33,-0.91 c -72.44,-45.648 -163.97,-30.59 -204.44,33.66 -40.5,64.262 -14.58,153.309 57.85,198.95"
         style="fill:#181c2e;fill-opacity:1;fill-rule:nonzero;stroke:none"
         id="path26" /><path
         d="m 5133.09,134.082 c -22.35,-3.602 -45.26,-5.273 -68.66,-4.652 -203.5,5.429 -364.07,174.812 -358.61,378.332 5.43,203.508 174.81,364.058 378.33,358.629 69.93,-1.879 134.85,-23.11 189.62,-58.45 0.02,1.45 0,2.84 0.02,4.258 5.21,195.221 167.68,349.211 362.87,343.931 130.38,-3.48 242.3,-77.12 300.74,-183.79 5.01,2.551 10.15,4.859 15.35,7.058 V 0.0195313 H 5239.46 C 5193.06,34.3516 5156.04,80.4922 5133.09,134.082"
         style="fill:#181c2e;fill-opacity:1;fill-rule:nonzero;stroke:none"
         id="path28" /><path
         d="m 2419.67,451.969 c 21.45,4.301 42.81,6.461 63.95,6.801 -5.83,16.57 -10.61,33.699 -14.14,51.382 -40.95,205.207 92.16,404.778 297.35,445.707 174.93,34.961 345.66,-56.718 417.62,-211.64 41.92,37.371 93.98,64.402 153.04,76.242 129.02,25.758 255.34,-28.422 327.98,-128.281 20.96,8.468 42.94,15.179 65.89,19.75 C 3931.01,751.781 4125.18,622.281 4165,422.66 4202,237.359 4093.03,56.8711 3917.55,0.0195313 h -227.91 c -3.94,1.2890587 -7.93,2.4414087 -11.82,3.8710987 0.29,-1.28907 0.61,-2.5586 0.86,-3.8710987 H 2149.52 C 2146.14,11.1523 2143.25,22.5391 2140.93,34.1797 c -38.4,192.3323 86.4,379.4023 278.74,417.7893"
         style="fill:#97cdc4;fill-opacity:1;fill-rule:nonzero;stroke:none"
         id="path30" /><path
         d="m 0,766.5 c 113.508,7.371 220.398,-45.129 284.91,-133.82 20.949,8.472 42.961,15.172 65.891,19.75 C 550.449,692.281 744.617,562.781 784.473,363.16 812.703,221.68 755.828,83.0313 649.27,0.0195313 H 0 V 766.5"
         style="fill:#97cdc4;fill-opacity:1;fill-rule:nonzero;stroke:none"
         id="path32" /><path
         d="m 828.633,185.891 c 1.25,6.578 2.285,13.218 2.949,19.871 3.242,-1.27 6.523,-2.492 9.902,-3.621 -4.531,-5.262 -8.855,-10.59 -12.851,-16.25 z M 254.246,0.0195313 H 1251.04 C 1260.48,45.2305 1256.79,93.6719 1237.5,139.48 c -1.29,3.079 -2.72,6.168 -4.13,9.18 22.07,2.172 44.17,7.699 65.69,16.75 115.56,48.649 169.78,181.742 121.16,297.332 -48.66,115.528 -181.76,169.77 -297.32,121.129 -26.28,-11.031 -49.34,-26.492 -68.8,-45.07 C 997.031,597.379 907.832,618.309 827.891,584.75 762.07,557.012 718.367,498.922 706.035,433.621 648.328,462.539 578.75,467.02 514.563,439.961 397.852,390.852 343.086,256.461 392.207,139.77 c 3.477,-8.239 7.402,-16.188 11.699,-23.801 -15.039,-2.547 -29.98,-6.707 -44.668,-12.938 C 310.461,82.5 274.246,44.8203 254.246,0.0195313"
         style="fill:#97cdc4;fill-opacity:1;fill-rule:nonzero;stroke:none"
         id="path34" /><path
         d="m 3645.94,755.582 c 14.7,4.359 29.49,7.219 44.2,8.828 -5.12,11.16 -9.55,22.832 -13.13,34.961 -41.64,140.609 38.63,288.419 179.28,330.009 119.88,35.48 244.88,-17.67 304.96,-121.23 26.86,28.72 61.5,50.94 101.99,62.95 88.42,26.13 180.05,-3.64 237.09,-68.72 14.12,7.23 29,13.28 44.77,17.96 136.79,40.48 280.56,-37.59 321.05,-174.43 40.51,-136.82 -37.61,-280.578 -174.42,-321.051 -47.02,-13.929 -94.88,-13.847 -139.07,-2.179 0.28,-0.981 0.6,-1.879 0.9,-2.84 38.84,-131.238 -36.04,-269.11 -167.3,-307.961 -87.65,-25.938 -178.21,-1.078 -240.31,57.34 -19.33,-19.27 -43.66,-34.199 -71.71,-42.52 -83.03,-24.558 -169.86,17.25 -203.83,94.5 -24.06,-18.969 -52.03,-33.82 -83.17,-43.019 -131.87,-39 -270.36,36.242 -309.37,168.062 -39.01,131.828 36.21,270.34 168.07,309.34"
         style="fill:#97cdc4;fill-opacity:1;fill-rule:nonzero;stroke:none"
         id="path36" /><path
         d="m 1373.48,359.461 c 14.45,4.648 29,7.809 43.53,9.758 -5.31,10.941 -9.99,22.34 -13.82,34.312 -44.46,138.09 31.46,286.16 169.58,330.641 117.79,37.887 242.66,-11.742 304.53,-112.793 25.92,29.062 59.65,51.851 99.44,64.641 86.83,27.992 178.18,0.66 236.13,-62.36 13.75,7.461 28.38,13.809 43.83,18.789 134.39,43.25 278.46,-30.59 321.71,-165.008 43.25,-134.402 -30.62,-278.429 -165.01,-321.691 -46.21,-14.879 -93.56,-15.898 -137.52,-5.398 0.3,-0.942 0.66,-1.84 0.96,-2.77 16.04,-49.8711 15.24,-101.082 0.83,-147.5624687 H 1236.73 C 1227.72,15.3516 1220.19,31.8711 1214.51,49.5117 1172.81,178.992 1243.98,317.77 1373.48,359.461"
         style="fill:#97cdc4;fill-opacity:1;fill-rule:nonzero;stroke:none"
         id="path38" /><path
         d="m 4696.34,626.52 c 13.13,8.269 26.84,14.48 40.8,18.812 -1.09,1.637 -2.18,3.227 -3.21,4.84 -64.77,102.738 -23.3,245.187 92.55,318.219 105.95,66.719 237.43,52.209 308.62,-29.309 14.53,17 31.99,32.32 52.24,45.047 96.61,60.861 218.65,40.781 272.6,-44.91 48.88,-77.508 25.15,-182.149 -51.42,-246.449 24.02,-77.95 -12.17,-170.02 -92.8,-220.86 -65.64,-41.32 -143.26,-44.34 -202.2,-14.289 -4.07,-42.23 -29.14,-84.09 -70.94,-110.422 -67.31,-42.418 -152.36,-28.379 -189.93,31.27 -3.33,5.281 -6.05,10.761 -8.39,16.351 l -1.33,-0.91 c -72.44,-45.648 -163.97,-30.59 -204.44,33.66 -40.5,64.262 -14.58,153.309 57.85,198.95"
         style="fill:#97cdc4;fill-opacity:1;fill-rule:nonzero;stroke:none"
         id="path40" /><path
         d="m 5064.43,29.4297 c -203.5,5.4297 -364.07,174.8123 -358.61,378.3323 5.43,203.508 174.81,364.058 378.33,358.629 69.93,-1.879 134.85,-23.11 189.62,-58.45 0.02,1.45 0,2.84 0.02,4.258 5.21,195.223 167.68,349.211 362.87,343.931 130.38,-3.48 242.3,-77.118 300.74,-183.79 5.01,2.551 10.15,4.859 15.35,7.058 V 0.0195313 H 5150.3 C 5143.97,11.0117 5138.12,22.3203 5133.09,34.082 c -22.35,-3.5898 -45.26,-5.2734 -68.66,-4.6523"
         style="fill:#97cdc4;fill-opacity:1;fill-rule:nonzero;stroke:none"
         id="path42" /><path
         d="m 2457.79,16.4609 c -96.17,185.8011 -23.49,414.4411 162.35,510.5901 158.41,82 347.88,41.16 459.88,-87.781 29.96,47.511 72.49,87.929 125.98,115.632 116.83,60.438 253.24,43.34 350.66,-32.461 17.81,13.911 37.07,26.418 57.87,37.211 180.8,93.559 403.2,22.817 496.76,-157.941 69.44,-134.242 48.31,-291.332 -41.1,-401.6914687 H 2467.06 C 2463.9,5.44922 2460.7,10.8203 2457.79,16.4609"
         style="fill:#ffffff;fill-opacity:1;fill-rule:nonzero;stroke:none"
         id="path44" /><path
         d="m 1152.83,64.2188 c 3.67,4.6523 7.21,9.4101 10.45,14.3515 2.02,-2.3594 4.1,-4.6406 6.28,-6.9297 -5.7,-2.2695 -11.3,-4.6484 -16.73,-7.4218 z M 559.133,0.0195313 H 1723.61 c 3.36,11.9726687 5.77,24.3710687 6.88,37.2109687 9.51,110.6015 -72.4,207.9995 -183.04,217.5115 -25.13,2.18 -49.57,-0.441 -72.49,-6.941 -20.53,69.429 -81.8,122.64 -158.3,129.25 -63.01,5.41 -121.21,-22.09 -157.77,-68.16 -33.32,46.441 -85.98,78.629 -147.43,83.871 -111.687,9.668 -210.007,-73.082 -219.644,-184.731 -0.664,-7.902 -0.859,-15.75 -0.605,-23.5 -12.859,4.219 -26.289,7.129 -40.332,8.289 -97.598,8.41 -183.543,-63.89 -191.961,-161.488 -0.922,-10.6132 -0.703,-21.0625 0.215,-31.3124687"
         style="fill:#ffffff;fill-opacity:1;fill-rule:nonzero;stroke:none"
         id="path46" /><path
         d="m 3860.84,240.34 c -20.41,18.121 -36.8,41.461 -46.79,68.992 -29.58,81.348 6.89,170.578 81.92,209.16 -20.36,22.879 -36.87,49.887 -47.96,80.449 -46.96,129.207 19.74,272.02 148.96,318.969 129.22,46.93 272.01,-19.738 318.99,-148.969 5.21,-14.41 8.97,-28.992 11.48,-43.601 10.84,5.769 22.22,10.902 34.1,15.262 137.84,50.058 290.21,-21.11 340.3,-158.942 42.69,-117.512 -2.8,-245.488 -102.5,-311.769 30.29,-25.051 54.57,-58.301 69,-97.969 21.16,-58.27 17.07,-119.5001 -6.51,-171.9024687 H 3817.19 C 3787.53,85.0586 3806.94,175.57 3860.84,240.34"
         style="fill:#ffffff;fill-opacity:1;fill-rule:nonzero;stroke:none"
         id="path48" /><path
         d="m 1653.14,46.6211 c -80.29,109.7889 -56.39,263.9299 53.4,344.2499 109.81,80.309 263.93,56.379 344.24,-53.402 8.99,-12.289 16.54,-25.078 22.95,-38.27 8.71,8.492 18.09,16.543 28.2,23.93 117.11,85.652 281.55,60.172 367.22,-56.957 58.54,-80.09 64.98,-182.172 25.9,-266.1524687 H 1697.98 C 1681.44,13.2617 1666.24,28.7305 1653.14,46.6211"
         style="fill:#ffffff;fill-opacity:1;fill-rule:nonzero;stroke:none"
         id="path50" /><path
         d="m 4533.46,319.781 c 11.49,10.371 23.98,18.84 36.99,25.469 -1.35,1.41 -2.72,2.809 -4.02,4.23 -81.26,90.231 -64.66,237.672 37.07,329.29 93.04,83.8 225.04,91.878 309.1,23.671 11.45,19.25 26.05,37.309 43.81,53.289 84.82,76.43 208.5,77.411 276.25,2.149 61.35,-68.07 55.82,-175.207 -8.7,-251.598 36.94,-72.73 16.95,-169.633 -53.86,-233.429 -57.64,-51.922 -133.62,-68.071 -196.81,-48.493 3.17,-42.328 -14.41,-87.839 -51.11,-120.898 -59.12,-53.2696 -145.3,-53.8907 -192.53,-1.512 -4.16,4.653 -7.76,9.571 -11.02,14.68 l -1.17,-1.16 c -63.61,-57.2893 -156.37,-58.0081 -207.19,-1.61 -50.81,56.45 -40.41,148.633 23.19,205.922"
         style="fill:#ffffff;fill-opacity:1;fill-rule:nonzero;stroke:none"
         id="path52" /><path
         d="m 4554.64,101.949 c 5.44,203.512 174.81,364.043 378.33,358.633 69.94,-1.883 134.84,-23.102 189.63,-58.453 0.02,1.422 -0.01,2.84 0.02,4.262 5.2,195.199 167.67,349.191 362.86,343.961 130.38,-3.481 242.29,-77.153 300.75,-183.852 34.79,17.66 74.3,27.16 116.06,26.051 17.39,-0.469 34.21,-2.93 50.46,-6.84 V 0.0195313 H 4566.2 C 4557.83,32.5391 4553.69,66.7188 4554.64,101.949"
         style="fill:#ffffff;fill-opacity:1;fill-rule:nonzero;stroke:none"
         id="path54" /><path
         d="m 0,555.859 c 31.1133,12.661 65.2422,19.352 101.016,18.391 127.629,-3.449 230.351,-101.68 242.734,-225.488 42.402,15.57 88.359,23.617 136.27,22.297 C 680.754,365.699 839.465,200.16 837.188,0.0195313 H 0 V 555.859"
         style="fill:#ffffff;fill-opacity:1;fill-rule:nonzero;stroke:none"
         id="path56" /><path
         d="m 1572.18,2941.49 -21.84,44.27 -21.85,-44.27 -48.84,-7.1 35.34,-34.44 -8.34,-48.66 43.69,22.97 43.69,-22.97 -8.36,48.66 35.36,34.44 -48.85,7.1"
         style="fill:#f4f584;fill-opacity:1;fill-rule:nonzero;stroke:none"
         id="path58" /><path
         d="m 1197.18,3476.95 -21.84,44.26 -21.85,-44.26 -48.84,-7.11 35.34,-34.44 -8.34,-48.65 43.69,22.96 43.69,-22.96 -8.36,48.65 35.36,34.44 -48.85,7.11"
         style="fill:#f4f584;fill-opacity:1;fill-rule:nonzero;stroke:none"
         id="path60" /><path
         d="m 5636.31,3118.03 -21.84,44.26 -21.85,-44.26 -48.84,-7.11 35.34,-34.44 -8.34,-48.65 43.69,22.97 43.69,-22.97 -8.36,48.65 35.36,34.44 -48.85,7.11"
         style="fill:#f4f584;fill-opacity:1;fill-rule:nonzero;stroke:none"
         id="path62" /><path
         d="m 5651.21,1392.38 21.84,44.25 21.85,-44.25 48.84,-7.11 -35.34,-34.45 8.34,-48.65 -43.69,22.97 -43.69,-22.97 8.35,48.65 -35.35,34.45 48.85,7.11"
         style="fill:#f4f584;fill-opacity:1;fill-rule:nonzero;stroke:none"
         id="path64" /><path
         d="m 1627.47,2181.21 -21.84,44.25 -21.85,-44.25 -48.84,-7.11 35.34,-34.45 -8.34,-48.65 43.69,22.97 43.7,-22.97 -8.36,48.65 35.35,34.45 -48.85,7.11"
         style="fill:#f4f584;fill-opacity:1;fill-rule:nonzero;stroke:none"
         id="path66" /><path
         d="m 3855.72,2804.27 -21.83,44.26 -21.86,-44.26 -48.84,-7.11 35.35,-34.44 -8.34,-48.65 43.69,22.97 43.69,-22.97 -8.36,48.65 35.35,34.44 -48.85,7.11"
         style="fill:#f4f584;fill-opacity:1;fill-rule:nonzero;stroke:none"
         id="path68" /><path
         d="m 301.555,3055.75 -21.86,44.25 -21.836,-44.25 -48.843,-7.11 35.347,-34.44 -8.355,-48.66 43.687,22.97 43.696,-22.97 -8.34,48.66 35.347,34.44 -48.843,7.11"
         style="fill:#f4f584;fill-opacity:1;fill-rule:nonzero;stroke:none"
         id="path70" /><path
         d="m 4254.57,3284.59 -21.85,44.25 -21.84,-44.25 -48.84,-7.11 35.34,-34.45 -8.34,-48.65 43.68,22.97 43.71,-22.97 -8.36,48.65 35.35,34.45 -48.85,7.11"
         style="fill:#f4f584;fill-opacity:1;fill-rule:nonzero;stroke:none"
         id="path72" /><path
         d="m 2503.45,3714.85 -21.85,44.26 -21.84,-44.26 -48.85,-7.11 35.35,-34.44 -8.35,-48.66 43.69,22.97 43.69,-22.97 -8.35,48.66 35.35,34.44 -48.84,7.11"
         style="fill:#f4f584;fill-opacity:1;fill-rule:nonzero;stroke:none"
         id="path74" /><path
         d="m 4300.49,3850.88 -21.85,44.26 -21.84,-44.26 -48.84,-7.11 35.33,-34.44 -8.34,-48.66 43.69,22.98 43.69,-22.98 -8.35,48.66 35.36,34.44 -48.85,7.11"
         style="fill:#f4f584;fill-opacity:1;fill-rule:nonzero;stroke:none"
         id="path76" /><path
         d="m 3141.63,3218.03 -21.84,44.26 -21.85,-44.26 -48.84,-7.11 35.34,-34.44 -8.34,-48.65 43.69,22.97 43.7,-22.97 -8.36,48.65 35.35,34.44 -48.85,7.11"
         style="fill:#f4f584;fill-opacity:1;fill-rule:nonzero;stroke:none"
         id="path78" /><path
         d="m 4325.26,2315.67 -21.83,44.26 -21.86,-44.26 -48.84,-7.11 35.35,-34.44 -8.34,-48.66 43.69,22.97 43.69,-22.97 -8.36,48.66 35.35,34.44 -48.85,7.11"
         style="fill:#f4f584;fill-opacity:1;fill-rule:nonzero;stroke:none"
         id="path80" /><path
         d="m 5644.22,2106.53 -21.86,44.26 -21.83,-44.26 -48.85,-7.11 35.35,-34.45 -8.36,-48.65 43.69,22.97 43.69,-22.97 -8.34,48.65 35.36,34.45 -48.85,7.11"
         style="fill:#f4f584;fill-opacity:1;fill-rule:nonzero;stroke:none"
         id="path82" /><path
         d="m 2599.46,1982.73 -21.85,44.26 -21.84,-44.26 -48.85,-7.11 35.36,-34.44 -8.36,-48.66 43.69,22.97 43.69,-22.97 -8.34,48.66 35.35,34.44 -48.85,7.11"
         style="fill:#f4f584;fill-opacity:1;fill-rule:nonzero;stroke:none"
         id="path84" /><path
         d="m 3640.01,1516.48 21.86,44.26 21.83,-44.26 48.85,-7.11 -35.35,-34.44 8.36,-48.66 -43.69,22.97 -43.7,-22.97 8.34,48.66 -35.35,34.44 48.85,7.11"
         style="fill:#f4f584;fill-opacity:1;fill-rule:nonzero;stroke:none"
         id="path86" /><path
         d="m 4298.28,1733.04 -21.83,44.26 -21.86,-44.26 -48.84,-7.11 35.34,-34.44 -8.34,-48.65 43.7,22.96 43.69,-22.96 -8.36,48.65 35.35,34.44 -48.85,7.11"
         style="fill:#f4f584;fill-opacity:1;fill-rule:nonzero;stroke:none"
         id="path88" /><path
         d="m 2236.05,1019.03 21.84,44.26 21.86,-44.26 48.83,-7.11 -35.34,-34.451 8.34,-48.649 -43.69,22.969 -43.69,-22.969 8.36,48.649 -35.35,34.451 48.84,7.11"
         style="fill:#f4f584;fill-opacity:1;fill-rule:nonzero;stroke:none"
         id="path90" /><path
         d="m 744.805,1086.25 21.836,44.26 21.855,-44.26 48.84,-7.11 -35.344,-34.44 8.34,-48.649 -43.691,22.969 -43.692,-22.969 8.36,48.649 -35.352,34.44 48.848,7.11"
         style="fill:#f4f584;fill-opacity:1;fill-rule:nonzero;stroke:none"
         id="path92" /><path
         d="m 144.07,1392.38 21.836,44.25 21.86,-44.25 48.836,-7.11 -35.34,-34.45 8.34,-48.65 -43.696,22.97 -43.687,-22.97 8.355,48.65 -35.3513,34.45 48.8473,7.11"
         style="fill:#f4f584;fill-opacity:1;fill-rule:nonzero;stroke:none"
         id="path94" /><path
         d="m 2040.83,1583.71 21.84,44.26 21.85,-44.26 48.84,-7.11 -35.34,-34.44 8.34,-48.65 -43.69,22.96 -43.7,-22.96 8.36,48.65 -35.35,34.44 48.85,7.11"
         style="fill:#f4f584;fill-opacity:1;fill-rule:nonzero;stroke:none"
         id="path96" /><path
         d="m 2340.43,3071.95 -21.84,44.26 -21.85,-44.26 -48.84,-7.11 35.34,-34.45 -8.34,-48.65 43.69,22.97 43.7,-22.97 -8.36,48.65 35.35,34.45 -48.85,7.11"
         style="fill:#f4f584;fill-opacity:1;fill-rule:nonzero;stroke:none"
         id="path98" /><path
         d="m 2925.5,2657.72 -21.84,44.26 -21.85,-44.26 -48.84,-7.11 35.34,-34.44 -8.34,-48.65 43.69,22.97 43.69,-22.97 -8.36,48.65 35.36,34.44 -48.85,7.11"
         style="fill:#f4f584;fill-opacity:1;fill-rule:nonzero;stroke:none"
         id="path100" /><path
         d="m 3238.59,1991.13 -21.83,44.25 -21.86,-44.25 -48.84,-7.11 35.35,-34.45 -8.34,-48.65 43.69,22.97 43.69,-22.97 -8.36,48.65 35.35,34.45 -48.85,7.11"
         style="fill:#f4f584;fill-opacity:1;fill-rule:nonzero;stroke:none"
         id="path102" /><path
         d="m 4907.52,3476.96 -21.86,44.25 -21.83,-44.25 -48.85,-7.11 35.35,-34.44 -8.36,-48.66 43.69,22.97 43.7,-22.97 -8.34,48.66 35.35,34.44 -48.85,7.11"
         style="fill:#f4f584;fill-opacity:1;fill-rule:nonzero;stroke:none"
         id="path104" /><path
         d="m 5473.68,2617.11 -38.64,78.31 -38.65,-78.31 -86.43,-12.56 62.54,-60.94 -14.77,-86.08 77.31,40.64 77.28,-40.64 -14.76,86.08 62.54,60.94 -86.42,12.56"
         style="fill:#f8a237;fill-opacity:1;fill-rule:nonzero;stroke:none"
         id="path106" /><path
         d="m 1897.24,3613.56 -38.65,78.31 -38.65,-78.31 -86.41,-12.56 62.52,-60.95 -14.76,-86.07 77.3,40.63 77.29,-40.63 -14.77,86.07 62.54,60.95 -86.41,12.56"
         style="fill:#f8a237;fill-opacity:1;fill-rule:nonzero;stroke:none"
         id="path108" /><path
         d="m 5582.42,3732.52 -38.65,78.3 -38.64,-78.3 -86.42,-12.56 62.54,-60.95 -14.77,-86.08 77.29,40.64 77.3,-40.64 -14.76,86.08 62.53,60.95 -86.42,12.56"
         style="fill:#f8a237;fill-opacity:1;fill-rule:nonzero;stroke:none"
         id="path110" /><path
         d="m 5082.39,1944.13 -38.64,78.31 -38.64,-78.31 -86.43,-12.56 62.54,-60.95 -14.76,-86.07 77.29,40.62 77.29,-40.62 -14.76,86.07 62.54,60.95 -86.43,12.56"
         style="fill:#f8a237;fill-opacity:1;fill-rule:nonzero;stroke:none"
         id="path112" /><path
         d="m 3446.72,2519.61 -38.65,78.31 -38.65,-78.31 -86.41,-12.56 62.53,-60.95 -14.77,-86.07 77.3,40.64 77.29,-40.64 -14.76,86.07 62.53,60.95 -86.41,12.56"
         style="fill:#f8a237;fill-opacity:1;fill-rule:nonzero;stroke:none"
         id="path114" /><path
         d="m 884.797,2941.78 -38.652,78.31 -38.645,-78.31 -86.414,-12.56 62.527,-60.96 -14.765,-86.06 77.297,40.63 77.293,-40.63 -14.766,86.06 62.539,60.96 -86.414,12.56"
         style="fill:#f8a237;fill-opacity:1;fill-rule:nonzero;stroke:none"
         id="path116" /><path
         d="m 2216.88,2511.18 -29.67,60.12 -29.68,-60.12 -66.35,-9.64 48.02,-46.8 -11.34,-66.08 59.35,31.2 59.34,-31.2 -11.34,66.08 48.02,46.8 -66.35,9.64"
         style="fill:#f8a237;fill-opacity:1;fill-rule:nonzero;stroke:none"
         id="path118" /><path
         d="m 1452.95,1150.5 29.68,60.13 29.67,-60.13 66.35,-9.64 -48.02,-46.79 11.34,-66.09 -59.34,31.2 -59.35,-31.2 11.34,66.09 -48.02,46.79 66.35,9.64"
         style="fill:#f8a237;fill-opacity:1;fill-rule:nonzero;stroke:none"
         id="path120" /><path
         d="m 405.398,2123.43 -29.668,60.13 -29.675,-60.13 -66.348,-9.64 48.02,-46.79 -11.348,-66.09 59.351,31.2 59.336,-31.2 -11.328,66.09 48.008,46.79 -66.348,9.64"
         style="fill:#f8a237;fill-opacity:1;fill-rule:nonzero;stroke:none"
         id="path122" /><path
         d="m 3613.13,3574.89 -29.66,60.13 -29.67,-60.13 -66.35,-9.64 48.01,-46.8 -11.35,-66.08 59.36,31.2 59.34,-31.2 -11.34,66.08 48.01,46.8 -66.35,9.64"
         style="fill:#f8a237;fill-opacity:1;fill-rule:nonzero;stroke:none"
         id="path124" /><path
         d="m 405.398,3817.38 -29.675,60.13 -29.668,-60.13 -66.348,-9.64 48.008,-46.79 -11.328,-66.09 59.336,31.2 59.355,-31.2 -11.348,66.09 48.016,46.79 -66.348,9.64"
         style="fill:#f8a237;fill-opacity:1;fill-rule:nonzero;stroke:none"
         id="path126" /><path
         d="m 4676.02,1400.6 29.67,60.13 29.67,-60.13 66.35,-9.64 -48.01,-46.8 11.33,-66.08 -59.34,31.2 -59.35,-31.2 11.35,66.08 -48.02,46.8 66.35,9.64"
         style="fill:#f8a237;fill-opacity:1;fill-rule:nonzero;stroke:none"
         id="path128" /><path
         d="m 4819.33,2800.82 -29.68,60.13 -29.67,-60.13 -66.35,-9.63 48.01,-46.81 -11.33,-66.08 59.34,31.21 59.34,-31.21 -11.33,66.08 48.01,46.81 -66.34,9.63"
         style="fill:#f8a237;fill-opacity:1;fill-rule:nonzero;stroke:none"
         id="path130" /><path
         d="m 2970,1333.37 29.68,60.13 29.67,-60.13 66.34,-9.64 -48,-46.8 11.32,-66.08 -59.33,31.2 -59.35,-31.2 11.34,66.08 -48.02,46.8 66.35,9.64"
         style="fill:#f8a237;fill-opacity:1;fill-rule:nonzero;stroke:none"
         id="path132" /><path
         d="m 1086.17,1996.1 c -71.54,193.05 -25.77,400.89 101.36,545.34 -31.89,-5.61 -63.7,-14.13 -95.13,-25.79 -280.923,-104.09 -424.302,-416.2 -320.205,-697.13 104.082,-280.93 416.225,-424.27 697.155,-320.19 88.99,32.98 164.14,86.84 222.05,153.98 -253.87,-47.27 -512.45,93.41 -605.23,343.79"
         style="fill:#f8c32e;fill-opacity:1;fill-rule:nonzero;stroke:none"
         id="path134" /></g></g></svg>
